<svg xmlns="http://www.w3.org/2000/svg" width="46" height="36" fill="none" viewBox="0 0 46 36"><path stroke="#666578" stroke-width="2" d="M27 12.5C27 12.5 28.2421 11 30 11C32.5361 11 36.1456 11 38.6471 11C42.8824 11 45 14.25 45 17.5C45 20.75 42.8824 24 38.6471 24C36.1456 24 32.5361 24 30 24C28.2421 24 27 22.5 27 22.5"/><path stroke="#666578" stroke-width="2" d="M19 12.5C19 12.5 17.7579 11 16 11C13.4639 11 9.85439 11 7.35294 11C3.11765 11 1 14.25 1 17.5C1 20.75 3.11765 24 7.35294 24C9.85439 24 13.4639 24 16 24C17.7579 24 19 22.5 19 22.5"/><line x1="14.707" x2="18.707" y1="1.293" y2="5.293" stroke="#666578" stroke-width="2"/><line x2="5.657" y1="-1" y2="-1" stroke="#666578" stroke-width="2" transform="matrix(-0.707107 0.707107 0.707107 0.707107 32 2)"/><line x1="23" x2="23" y2="4" stroke="#666578" stroke-width="2"/><line x2="5.657" y1="-1" y2="-1" stroke="#666578" stroke-width="2" transform="matrix(0.707107 -0.707107 -0.707107 -0.707107 14 34)"/><line x1="31.293" x2="27.293" y1="34.707" y2="30.707" stroke="#666578" stroke-width="2"/><line x2="4" y1="-1" y2="-1" stroke="#666578" stroke-width="2" transform="matrix(0 -1 -1 0 22 36)"/></svg>