<svg xmlns="http://www.w3.org/2000/svg" width="21" height="19" fill="none" viewBox="0 0 21 19"><rect width="11.1" height="16.452" x="8.832" y=".838" stroke="#444258" stroke-linecap="round" stroke-linejoin="round" stroke-width="1.5" rx="2.25"/><rect width="3.933" height="5.884" x="6.916" y="5.972" fill="#fff"/><path fill="#444258" d="M15.4 9.66321C15.8142 9.66321 16.15 9.32742 16.15 8.91321C16.15 8.49899 15.8142 8.16321 15.4 8.16321V9.66321ZM0.469663 8.38288C0.176769 8.67577 0.176769 9.15064 0.469663 9.44354L5.24263 14.2165C5.53553 14.5094 6.0104 14.5094 6.30329 14.2165C6.59619 13.9236 6.59619 13.4487 6.30329 13.1558L2.06065 8.91321L6.30329 4.67057C6.59619 4.37767 6.59619 3.9028 6.30329 3.60991C6.0104 3.31701 5.53553 3.31701 5.24263 3.60991L0.469663 8.38288ZM15.4 8.16321L0.999992 8.16321V9.66321L15.4 9.66321V8.16321Z"/></svg>