<svg xmlns="http://www.w3.org/2000/svg" xmlns:svg="http://www.w3.org/2000/svg" id="svg1400" width="32" height="32" version="1.1" viewBox="0 0 8.467 8.467"><defs id="defs1394"><clipPath id="clipPath42" clipPathUnits="userSpaceOnUse"><path id="path44" d="M 0,500 1024,500 1024,0 0,0 0,500 Z"/></clipPath><clipPath id="clipPath54" clipPathUnits="userSpaceOnUse"><path id="path56" d="M 0,500 1024,500 1024,0 0,0 0,500 Z"/></clipPath></defs><metadata id="metadata1397"/><g id="layer1" transform="translate(0,-288.53334)"><circle id="path835" cx="4.233" cy="292.767" r="3.942" style="opacity:1;fill:none;fill-opacity:1;stroke:#999;stroke-width:.58208328;stroke-linecap:round;stroke-linejoin:miter;stroke-miterlimit:4;stroke-dasharray:none;stroke-dashoffset:0;stroke-opacity:1;paint-order:markers fill stroke"/><g style="stroke-width:5.09884453" id="g920" transform="matrix(0.01660507,0,0,0.01660507,-17.353258,288.5762)"><path id="path6675" d="m 1160,152.36133 v 1.57812 l 116.0684,106.88477 c 13.2802,12.22908 34.3174,12.23135 47.5976,0.002 L 1440,153.69727 v -1.33594 z" style="opacity:1;fill:#999;fill-opacity:1;stroke:none;stroke-width:5.60872889;stroke-linecap:square;stroke-linejoin:miter;stroke-miterlimit:4;stroke-dasharray:none;stroke-opacity:1"/><path id="rect6662" d="m 1440,174.05273 -86.4805,79.63672 86.4805,86.48047 z m -280,0.2461 v 167.68945 l 87.2988,-87.29883 z m 182.4766,89.56055 -7.7598,7.14453 c -19.2124,17.69247 -50.4908,17.69213 -69.7031,0 l -6.6719,-6.14258 -87.5,87.5 h 260.1348 z" style="opacity:1;fill:#999;fill-opacity:1;stroke:none;stroke-width:5.60872889;stroke-linecap:square;stroke-linejoin:miter;stroke-miterlimit:4;stroke-dasharray:none;stroke-opacity:1"/></g></g><style id="style4192" type="text/css"/></svg>