<svg xmlns="http://www.w3.org/2000/svg" xmlns:svg="http://www.w3.org/2000/svg" id="svg1400" width="32" height="32" version="1.1" viewBox="0 0 8.467 8.467"><metadata id="metadata1397"/><g id="layer1" transform="translate(0,-288.53334)"><circle id="path835" cx="4.233" cy="292.767" r="3.942" style="opacity:1;fill:none;fill-opacity:1;stroke:#999;stroke-width:.58208328;stroke-linecap:round;stroke-linejoin:miter;stroke-miterlimit:4;stroke-dasharray:none;stroke-dashoffset:0;stroke-opacity:1;paint-order:markers fill stroke"/><path id="path4333" d="m 6.2986579,290.75886 c -0.07428,-0.001 -0.165812,0.0277 -0.165812,0.0277 l -4.5341819,1.78486 c 0,0 -0.204342,0.0211 -0.230316,0.10077 -0.02066,0.0634 0.100764,0.17273 0.100764,0.17273 l 1.237907,0.44624 0.36158,1.14298 -0.339988,-1.14298 2.7637089,-1.7921 0.1007242,0.0288 -0.03595,0.0792 -2.1879591,1.97923 -0.0887,1.05183 -0.01206,0.11411 0.0023,0.002 -0.0023,0.0267 -0.1159751,-0.0819 8.573e-4,0.003 0.201488,0.1583 0.01416,-0.0142 0.0074,0.007 0.7125379,-0.7197 c 0,0 -0.004,-0.003 -0.0042,-0.003 l 0.01856,-0.0186 1.194723,0.92123 c 0,0 0.1384289,0.0379 0.201526,0.0144 0.03815,-0.0142 0.08633,-0.0864 0.08633,-0.0864 l 0.906864,-3.9584 c 0,0 -0.05217,-0.18824 -0.1295519,-0.23032 -0.016899,-0.009 -0.03975,-0.0129 -0.0645,-0.0133 z" style="display:inline;fill:#999;stroke:none;stroke-width:.26458332"/></g><style id="style905" type="text/css"/></svg>